<svg xmlns="http://www.w3.org/2000/svg" xmlns:xlink="http://www.w3.org/1999/xlink" width="100" height="100" viewBox="0 0 34 34">
    <defs>
        <path id="a" d="M8.98 11.46c.58 0 1.02.42 1.02.98s-.44.98-1.02.98H1.56c-.58 0-1.06-.46-1.06-1.04 0-.34.14-.62.42-.86L5.16 7.8C6.7 6.44 7.3 5.46 7.3 4.28c0-1.4-.88-2.34-2.18-2.34-1.26 0-2.18.92-2.24 2.22-.02.2-.02.4-.02.52-.06.58-.48.98-1.06.98-.5 0-.92-.34-1.02-.9-.08-.24-.1-.54-.06-.9C.88 1.64 2.76 0 5.18 0 7.68 0 9.5 1.76 9.5 4.2c0 1.7-.86 3.16-2.94 4.98l-2.6 2.28h5.02zM16.8.22C21.12.22 24 2.84 24 6.8c0 3.94-2.94 6.62-7.2 6.62h-3.02c-.64 0-1.1-.46-1.1-1.1v-11c0-.64.46-1.1 1.1-1.1h3.02zm-.02 1.92H14.8v9.38h1.98c3.02 0 5.02-1.88 5.02-4.72 0-2.86-1.94-4.66-5.02-4.66z"/>
    </defs>
    <g fill="none" fill-rule="evenodd" transform="translate(5 10)">
        <mask id="b" fill="#fff">
            <use xlink:href="#a"/>
        </mask>
        <use fill="#ffffff" xlink:href="#a"/>
        <g fill="#ffffff" mask="url(#b)">
            <path d="M-5-10h34v34H-5z"/>
        </g>
    </g>
</svg>
