<svg xmlns="http://www.w3.org/2000/svg" width="80" height="53" viewBox="0 0 80 53">
    <path fill="#FFF" fill-rule="evenodd" d="M30.476 0h19.048a2.857 2.857 0 0 1 2.857 2.857v18.868a2.857 2.857 0 0 1-2.857 2.857H30.476a2.857 2.857 0 0 1-2.857-2.857V2.857A2.857 2.857 0 0 1 30.476 0zM40 8.51l-2.857 5.672h5.714L40 8.509zM30.476 52a2.857 2.857 0 0 1-2.857-2.857V30.275a2.857 2.857 0 0 1 2.857-2.857h19.048a2.857 2.857 0 0 1 2.857 2.857v18.868A2.857 2.857 0 0 1 49.524 52H30.476zM40 43.49l2.857-5.672h-5.714L40 43.491zM.09 30.186a2.857 2.857 0 0 1 2.857-2.857h18.868a2.857 2.857 0 0 1 2.857 2.857v19.048a2.857 2.857 0 0 1-2.857 2.857H2.947A2.857 2.857 0 0 1 .09 49.233V30.185zm8.502 9.524l5.673 2.857v-5.714l-5.673 2.857zm71.318-9.524v19.048a2.857 2.857 0 0 1-2.857 2.857H58.185a2.857 2.857 0 0 1-2.857-2.857V30.185a2.857 2.857 0 0 1 2.857-2.857h18.868a2.857 2.857 0 0 1 2.857 2.857zm-8.502 9.524l-5.673-2.857v5.714l5.673-2.857z"/>
</svg>
