<svg xmlns="http://www.w3.org/2000/svg" width="62" height="62" viewBox="0 0 62 62">
    <path fill="#FFF" fill-rule="nonzero" d="M4.528 15.84a2.997 2.997 0 0 1-.915-2.25l.138-5.827a1.113 1.113 0 0 1 1.076-1.076.993.993 0 0 1 1.026 1.026l-.138 5.826c-.003.117.014.228.046.332a30.67 30.67 0 0 1 8.11-8.11 1.028 1.028 0 0 0-.332-.046l-5.826.138a.993.993 0 0 1-1.026-1.026A1.113 1.113 0 0 1 7.763 3.75l5.826-.138a2.997 2.997 0 0 1 2.252.915A30.36 30.36 0 0 1 31 .5C47.845.5 61.5 14.155 61.5 31a30.36 30.36 0 0 1-4.028 15.16c.584.559.937 1.357.915 2.25l-.138 5.827a1.113 1.113 0 0 1-1.076 1.076.993.993 0 0 1-1.026-1.026l.138-5.826a1.028 1.028 0 0 0-.046-.332 30.67 30.67 0 0 1-8.11 8.11c.104.032.215.049.332.046l5.826-.138a.993.993 0 0 1 1.026 1.026 1.113 1.113 0 0 1-1.076 1.076l-5.826.138a2.997 2.997 0 0 1-2.252-.915A30.36 30.36 0 0 1 31 61.5C14.155 61.5.5 47.845.5 31a30.36 30.36 0 0 1 4.028-15.16zm.831.562A29.365 29.365 0 0 0 1.5 31c0 16.292 13.208 29.5 29.5 29.5 5.31 0 10.293-1.403 14.598-3.86a3.053 3.053 0 0 1-.266-1.332l.138-5.826a1.113 1.113 0 0 1 1.076-1.076.993.993 0 0 1 1.026 1.026l-.138 5.827c-.002.079.005.156.02.23a29.663 29.663 0 0 0 8.034-8.035 1.04 1.04 0 0 0-.23-.02l-5.826.138a.993.993 0 0 1-1.026-1.026 1.113 1.113 0 0 1 1.076-1.076l5.826-.138c.48-.011.93.085 1.333.266A29.365 29.365 0 0 0 60.5 31C60.5 14.708 47.292 1.5 31 1.5a29.365 29.365 0 0 0-14.598 3.86c.181.401.277.853.266 1.332l-.138 5.826a1.113 1.113 0 0 1-1.076 1.076.993.993 0 0 1-1.026-1.026l.138-5.827a1.04 1.04 0 0 0-.02-.23 29.663 29.663 0 0 0-8.034 8.035c.073.015.15.022.23.02l5.826-.138a.993.993 0 0 1 1.026 1.026 1.113 1.113 0 0 1-1.076 1.076l-5.826.138a3.053 3.053 0 0 1-1.333-.266z"/>
</svg>
