<svg xmlns="http://www.w3.org/2000/svg" xmlns:xlink="http://www.w3.org/1999/xlink" width="34" height="34" viewBox="0 0 34 34">
    <defs>
        <path id="a" d="M5.98 4.88c2.18.24 3.76 1.92 3.76 4.08 0 2.56-2.06 4.46-4.82 4.46-1.7 0-3.22-.76-4.24-2.16a.942.942 0 0 1-.18-.58c0-.54.44-.96.96-.96.3 0 .54.12.74.34.76.96 1.6 1.42 2.66 1.42 1.6 0 2.7-1.02 2.7-2.5S6.48 6.66 4.52 6.66h-.44a1 1 0 0 1-1.02-1.02c0-.3.12-.56.44-.84l2.94-2.86H1.96c-.56 0-.98-.42-.98-.98 0-.54.42-.96.98-.96h6.42c.58 0 1.06.48 1.06 1.06 0 .3-.12.56-.38.8L5.98 4.88zM16.5 0c4.32 0 7.2 2.62 7.2 6.58 0 3.94-2.94 6.62-7.2 6.62h-3.02c-.64 0-1.1-.46-1.1-1.1v-11c0-.64.46-1.1 1.1-1.1h3.02zm-.02 1.92H14.5v9.38h1.98c3.02 0 5.02-1.88 5.02-4.72 0-2.86-1.94-4.66-5.02-4.66z"/>
    </defs>
    <g fill="none" fill-rule="evenodd" transform="translate(5 10)">
        <mask id="b" fill="#fff">
            <use xlink:href="#a"/>
        </mask>
        <use fill="#4A4A4A" xlink:href="#a"/>
        <g fill="#4A4A4A" mask="url(#b)">
            <path d="M-5-10h34v34H-5z"/>
        </g>
    </g>
</svg>
