<svg xmlns="http://www.w3.org/2000/svg" xmlns:xlink="http://www.w3.org/1999/xlink" width="34" height="34" viewBox="0 0 34 34">
    <defs>
        <path id="a" d="M18 0H2C.9 0 0 .9 0 2v16c0 1.1.9 2 2 2h16c1.1 0 2-.9 2-2V2c0-1.1-.9-2-2-2zM6 18H2v-4h4v4zm0-6H2V8h4v4zm0-6H2V2h4v4zm6 12H8v-4h4v4zm0-6H8V8h4v4zm0-6H8V2h4v4zm6 12h-4v-4h4v4zm0-6h-4V8h4v4zm0-6h-4V2h4v4z"/>
    </defs>
    <g fill="none" fill-rule="evenodd" transform="translate(7 7)">
        <mask id="b" fill="#fff">
            <use xlink:href="#a"/>
        </mask>
        <use fill="#4A4A4A" fill-rule="nonzero" xlink:href="#a"/>
        <g fill="#4A4A4A" mask="url(#b)">
            <path d="M-7-7h34v34H-7z"/>
        </g>
    </g>
</svg>
