<svg xmlns="http://www.w3.org/2000/svg" xmlns:xlink="http://www.w3.org/1999/xlink" width="34" height="34" viewBox="0 0 34 34">
    <defs>
        <path id="a" d="M13 2C6.942 2 2 6.942 2 13s4.942 11 11 11 11-4.942 11-11S19.058 2 13 2zm0-1.953C20.14.047 25.953 5.86 25.953 13S20.14 25.953 13 25.953.047 20.14.047 13 5.86.047 13 .047z"/>
    </defs>
    <g fill="none" fill-rule="evenodd">
        <g transform="translate(4 4)">
            <mask id="b" fill="#fff">
                <use xlink:href="#a"/>
            </mask>
            <use fill="#4A4A4A" fill-rule="nonzero" xlink:href="#a"/>
            <g fill="#4A4A4A" mask="url(#b)">
                <path d="M-4-4h34v34H-4z"/>
            </g>
        </g>
        <circle cx="17" cy="17" r="11" fill="#FFF59B"/>
        <path fill="#4A4A4A" d="M16.616 18.816c-.432 0-.8-.336-.8-.768v-.192c0-.672.288-1.152 1.232-2.032.944-.848 1.152-1.168 1.152-1.728 0-.736-.56-1.28-1.28-1.28-.592 0-1.072.32-1.376.944-.192.336-.416.48-.72.48a.751.751 0 0 1-.752-.752c0-.192.048-.336.144-.512.496-1.088 1.488-1.712 2.768-1.712 1.68 0 2.96 1.136 2.96 2.656 0 .848-.4 1.52-1.408 2.416-.864.768-1.12 1.136-1.12 1.6l-.016.16c-.016.416-.352.72-.784.72zm.048 3.36c-.688 0-1.232-.528-1.232-1.2 0-.672.544-1.216 1.232-1.216.672 0 1.2.544 1.2 1.216 0 .672-.528 1.2-1.2 1.2z"/>
    </g>
</svg>
