<svg xmlns="http://www.w3.org/2000/svg" width="72" height="48" viewBox="0 0 72 48">
    <path fill="#269CFF" fill-rule="evenodd" d="M27.429 0H44.57a2.571 2.571 0 0 1 2.572 2.571v17.076a2.571 2.571 0 0 1-2.572 2.571H27.43a2.571 2.571 0 0 1-2.572-2.571V2.57A2.571 2.571 0 0 1 27.43 0zM36 7.69l-2.571 5.128h5.142L36 7.691zM27.429 47a2.571 2.571 0 0 1-2.572-2.571V27.353a2.571 2.571 0 0 1 2.572-2.571H44.57a2.571 2.571 0 0 1 2.572 2.571V44.43A2.571 2.571 0 0 1 44.57 47H27.43zM36 39.31l2.571-5.128H33.43L36 39.309zM.081 27.271A2.571 2.571 0 0 1 2.652 24.7h16.981a2.571 2.571 0 0 1 2.572 2.572V44.51a2.571 2.571 0 0 1-2.572 2.571H2.653A2.571 2.571 0 0 1 .08 44.51V27.272zm7.652 8.619l5.105 2.582v-5.165l-5.105 2.583zm64.186-8.62V44.51a2.571 2.571 0 0 1-2.571 2.571H52.367a2.571 2.571 0 0 1-2.572-2.571V27.272a2.571 2.571 0 0 1 2.572-2.572h16.98a2.571 2.571 0 0 1 2.572 2.572zm-7.652 8.62l-5.105-2.583v5.165l5.105-2.582z"/>
</svg>
