<svg xmlns="http://www.w3.org/2000/svg" width="69" height="69" viewBox="0 0 69 69">
    <path fill="#269CFF" fill-rule="nonzero" d="M9.758 22.411a1.285 1.285 0 0 1 1.848 0c.51.523.51 1.372 0 1.895l-8.609 8.823a1.363 1.363 0 0 0 0 1.894l8.61 8.823c.51.523.51 1.372 0 1.895a1.285 1.285 0 0 1-1.85 0L1.15 36.918c-1.532-1.57-1.532-4.114 0-5.684l8.609-8.823zm46.845 1.994c-.493-.494-.535-1.341-.093-1.892.442-.55 1.2-.597 1.693-.103l8.808 8.823c1.576 1.578 1.576 4.205 0 5.784l-8.808 8.823c-.493.494-1.25.447-1.693-.104-.442-.55-.4-1.397.093-1.891l8.807-8.823a1.238 1.238 0 0 0 0-1.794l-8.807-8.823zM45.74 9.758c.523.51.523 1.338 0 1.848s-1.372.51-1.895 0l-8.823-8.609a1.363 1.363 0 0 0-1.894 0l-8.823 8.61c-.523.51-1.372.51-1.895 0a1.285 1.285 0 0 1 0-1.85l8.823-8.608c1.57-1.532 4.114-1.532 5.684 0l8.823 8.609zM43.863 56.73c.494-.493 1.34-.534 1.892-.092.55.442.597 1.2.103 1.693l-8.823 8.807c-1.579 1.577-4.205 1.577-5.784 0l-8.823-8.807c-.494-.493-.447-1.251.103-1.693.551-.442 1.398-.4 1.892.092l8.823 8.808c.514.513 1.28.513 1.794 0l8.823-8.808zM34.5 40c.418-.314.937-.5 1.5-.5h12c.563 0 1.082.186 1.5.5V25.5a1 1 0 0 0-1-1h-13a1 1 0 0 0-1 1V40zm-1-14.5a1 1 0 0 0-1-1h-13a1 1 0 0 0-1 1v14.268a1.99 1.99 0 0 1 1-.268h13c.364 0 .706.097 1 .268V25.5zm.5-1.323a1.995 1.995 0 0 1 1.5-.677h13a2 2 0 0 1 1.732 1H54.5v20h-5v-.268a1.99 1.99 0 0 1-1 .268h-13a1.995 1.995 0 0 1-1.5-.677 1.995 1.995 0 0 1-1.5.677h-13a1.99 1.99 0 0 1-1-.268v.268h-5v-20h4.268a2 2 0 0 1 1.732-1h13c.597 0 1.134.262 1.5.677zM33.5 41.5a1 1 0 0 0-1-1h-13a1 1 0 0 0-1 1v1a1 1 0 0 0 1 1h13a1 1 0 0 0 1-1v-1zm17-16v18h3v-18h-3zm-33 18v-18h-3v18h3zm17-1.5a1.5 1.5 0 0 0 1.5 1.5h12a1.5 1.5 0 0 0 0-3H36a1.5 1.5 0 0 0-1.5 1.5z"/>
</svg>
