<svg xmlns="http://www.w3.org/2000/svg" width="70" height="70" viewBox="0 0 70 70">
    <path fill="#FFF" fill-rule="nonzero" d="M10.621 23.275a1.285 1.285 0 0 1 1.849 0c.51.523.51 1.371 0 1.895L3.86 33.992a1.363 1.363 0 0 0 0 1.895l8.609 8.823c.51.523.51 1.371 0 1.894a1.285 1.285 0 0 1-1.849 0l-8.609-8.822c-1.531-1.57-1.531-4.115 0-5.684l8.61-8.823zm46.845 1.994c-.493-.494-.534-1.341-.092-1.892.442-.551 1.2-.597 1.693-.104l8.808 8.823c1.576 1.58 1.576 4.206 0 5.785l-8.808 8.822c-.493.494-1.251.448-1.693-.103-.442-.55-.4-1.398.092-1.892l8.808-8.822a1.238 1.238 0 0 0 0-1.795l-8.808-8.822zM46.604 10.62c.524.51.524 1.338 0 1.849-.523.51-1.371.51-1.894 0L35.887 3.86a1.363 1.363 0 0 0-1.895 0L25.17 12.47c-.524.51-1.372.51-1.895 0a1.285 1.285 0 0 1 0-1.849l8.823-8.609c1.57-1.531 4.114-1.531 5.684 0l8.822 8.61zm-1.877 46.974c.494-.493 1.34-.535 1.892-.093.55.442.597 1.2.103 1.693l-8.823 8.808c-1.579 1.576-4.206 1.576-5.784 0l-8.823-8.808c-.494-.493-.448-1.25.103-1.693.551-.442 1.398-.4 1.892.093l8.823 8.808c.514.513 1.28.513 1.794 0l8.823-8.808z"/>
</svg>
