<svg xmlns="http://www.w3.org/2000/svg" width="27" height="41" viewBox="0 0 27 41">
    <path fill="#269CFF" fill-rule="nonzero" d="M14.4 8.898V0C21.359 0 27 5.641 27 12.6v15.8C27 35.359 21.359 41 14.4 41h-1.8C5.641 41 0 35.359 0 28.4V12.6C0 5.641 5.641 0 12.6 0v8.898h-.61a1.8 1.8 0 0 0-1.8 1.8v6.234a1.8 1.8 0 0 0 1.8 1.8h3.02a1.8 1.8 0 0 0 1.8-1.8v-6.234a1.8 1.8 0 0 0-1.8-1.8h-.61zm-1.8 1.798h1.8a.9.9 0 0 1 .9.9v4.439a.9.9 0 0 1-.9.9h-1.8a.9.9 0 0 1-.9-.9v-4.44a.9.9 0 0 1 .9-.9zm-6.3-1.76C7.791 8.936 9 7.74 9 6.264c0-1.476-1.209-2.672-2.7-2.672S3.6 4.788 3.6 6.264c0 1.476 1.209 2.672 2.7 2.672z"/>
</svg>
